HIERARCHY
ROOT root
{
	OFFSET 0.000000 0.000000 0.000000
	CHANNELS 6 Xposition Yposition Zposition Zrotation Yrotation Xrotation
	JOINT lhip
	{
		OFFSET 0.058581 -0.082280 -0.017664
		CHANNELS 3 Zrotation Yrotation Xrotation
		JOINT lknee
		{
			OFFSET 0.043451 -0.386469 0.008037
			CHANNELS 3 Zrotation Yrotation Xrotation
			JOINT lankle
			{
				OFFSET -0.014790 -0.426874 -0.037428
				CHANNELS 3 Zrotation Yrotation Xrotation
				JOINT ltoe
				{
					OFFSET 0.041054 -0.060286 0.122042
					CHANNELS 3 Zrotation Yrotation Xrotation
					End Site
					{
						OFFSET 0.000000 0.000000 0.000000
					}
				}
			}
		}
	}
	JOINT rhip
	{
		OFFSET -0.060310 -0.090513 -0.013543
		CHANNELS 3 Zrotation Yrotation Xrotation
		JOINT rknee
		{
			OFFSET -0.043257 -0.383688 -0.004843
			CHANNELS 3 Zrotation Yrotation Xrotation
			JOINT rankle
			{
				OFFSET 0.019056 -0.420046 -0.034562
				CHANNELS 3 Zrotation Yrotation Xrotation
				JOINT rtoe
				{
					OFFSET -0.034840 -0.062106 0.130323
					CHANNELS 3 Zrotation Yrotation Xrotation
					End Site
					{
						OFFSET 0.000000 0.000000 0.000000
					}
				}
			}
		}
	}
	JOINT lowerback
	{
		OFFSET 0.004439 0.124404 -0.038385
		CHANNELS 3 Zrotation Yrotation Xrotation
		JOINT upperback
		{
			OFFSET 0.004488 0.137956 0.026820
			CHANNELS 3 Zrotation Yrotation Xrotation
			JOINT chest
			{
				OFFSET -0.002265 0.056032 0.002855
				CHANNELS 3 Zrotation Yrotation Xrotation
				JOINT lowerneck
				{
					OFFSET -0.013390 0.211636 -0.033468
					CHANNELS 3 Zrotation Yrotation Xrotation
					JOINT upperneck
					{
						OFFSET 0.010113 0.088937 0.050410
						CHANNELS 3 Zrotation Yrotation Xrotation
						End Site
						{
							OFFSET 0.000000 0.000000 0.000000
						}
					}
				}
				JOINT lclavicle
				{
					OFFSET 0.071702 0.114000 -0.018898
					CHANNELS 3 Zrotation Yrotation Xrotation
					JOINT lshoulder
					{
						OFFSET 0.122921 0.045205 -0.019046
						CHANNELS 3 Zrotation Yrotation Xrotation
						JOINT lelbow
						{
							OFFSET 0.255332 -0.015649 -0.022946
							CHANNELS 3 Zrotation Yrotation Xrotation
							JOINT lwrist
							{
								OFFSET 0.265709 0.012698 -0.007375
								CHANNELS 3 Zrotation Yrotation Xrotation
								End Site
								{
									OFFSET 0.000000 0.000000 0.000000
								}
							}
						}
					}
				}
				JOINT rclavicle
				{
					OFFSET -0.082954 0.112472 -0.023707
					CHANNELS 3 Zrotation Yrotation Xrotation
					JOINT rshoulder
					{
						OFFSET -0.113228 0.046853 -0.008472
						CHANNELS 3 Zrotation Yrotation Xrotation
						JOINT relbow
						{
							OFFSET -0.260127 -0.014369 -0.031269
							CHANNELS 3 Zrotation Yrotation Xrotation
							JOINT rwrist
							{
								OFFSET -0.269108 0.006794 -0.006027
								CHANNELS 3 Zrotation Yrotation Xrotation
								End Site
								{
									OFFSET 0.000000 0.000000 0.000000
								}
							}
						}
					}
				}
			}
		}
	}
}
MOTION
Frames: 10
Frame Time: 0.033333
0.285121 0.355261 1.011670 96.567106 1.692783 89.075769 5.694053 4.663215 3.905751 -1.286824 -10.507818 2.742760 0.242606 16.792013 -13.537229 0.000000 -0.000000 0.000000 -1.317300 -6.060020 -1.805111 0.132524 2.916594 12.452053 4.963234 -17.783088 -13.602505 0.000000 -0.000000 0.000000 1.020614 0.520262 4.794765 -0.714358 -2.011313 -2.851350 0.622638 -0.354467 1.810134 -0.058442 3.508271 6.194885 0.898307 5.602594 -6.329763 -1.238242 4.096784 -6.225810 -13.811987 -3.192419 -13.269738 12.811123 -14.071035 -2.260868 4.448027 -0.148369 13.486092 -2.041493 -4.169106 -7.481220 17.858859 5.031625 -9.393374 -13.227264 11.991557 -6.446119 -10.810153 -0.968566 6.171931 
0.285050 0.355232 1.011729 96.532811 1.647879 89.041393 5.631707 4.732215 3.922412 -1.210954 -10.350617 2.784285 0.532085 16.578579 -13.424208 0.000000 -0.000000 0.000000 -1.393673 -5.974266 -1.771136 0.143801 2.745950 12.457128 5.181766 -17.636011 -13.737384 0.000000 -0.000000 0.000000 0.998946 0.603044 4.925779 -0.667558 -2.033298 -3.052230 0.606143 -0.399827 1.872909 -0.093075 4.614946 6.465460 0.358070 6.331577 -5.344370 -1.270464 4.084927 -6.308922 -13.728627 -3.259646 -13.493567 12.806587 -13.933079 -2.631096 4.380859 -0.295239 14.608871 -2.065976 -4.162829 -7.527630 17.885447 4.936470 -9.293213 -13.213008 12.026781 -6.404702 -10.736147 -0.876479 6.031141 
0.285063 0.355135 1.011731 96.526950 1.652471 89.005413 5.573443 4.818626 3.893124 -1.067340 -10.409190 2.906309 0.541447 16.550508 -13.470018 0.000000 -0.000000 0.000000 -1.392440 -6.016091 -1.734607 0.146138 2.747474 12.451337 5.206740 -17.573924 -13.755134 0.000000 -0.000000 0.000000 1.047965 0.583418 4.928202 -0.693784 -2.021476 -3.057094 0.606573 -0.388242 1.880149 -0.264639 5.518347 7.025381 0.026859 7.194312 -4.901827 -1.258337 4.090861 -6.309193 -13.704477 -3.257333 -13.559574 12.759787 -14.002871 -2.566322 4.469905 -0.270388 14.807179 -2.010097 -4.259996 -7.450698 17.852924 5.047433 -9.296563 -13.162340 12.031618 -6.435715 -10.799189 -0.915369 5.899786 
0.285045 0.354925 1.011727 96.494825 1.651961 88.971595 5.572409 4.832789 3.924620 -1.034743 -10.405343 2.904032 0.568843 16.577710 -13.435129 0.000000 -0.000000 0.000000 -1.397015 -6.056341 -1.709050 0.159946 2.761105 12.442739 5.213686 -17.519768 -13.763844 0.000000 -0.000000 0.000000 1.113170 0.562023 4.939170 -0.707742 -1.992678 -3.078851 0.595182 -0.367914 1.914859 -0.428157 6.615863 7.697582 -0.413658 8.283090 -4.252469 -1.268420 4.112361 -6.326956 -13.667846 -3.285813 -13.603434 12.716201 -14.046824 -2.579330 4.492549 -0.162981 14.826211 -1.968043 -4.386378 -7.408305 17.829102 5.177455 -9.260123 -13.155561 12.007528 -6.459831 -10.694643 -0.936698 5.793713 
0.285050 0.354789 1.011724 96.474981 1.647070 88.962852 5.574870 4.824453 3.941777 -1.035037 -10.387827 2.891916 0.586895 16.602945 -13.411479 0.000000 -0.000000 0.000000 -1.400545 -6.065240 -1.699723 0.165572 2.772476 12.435593 5.213457 -17.507774 -13.766594 0.000000 -0.000000 0.000000 1.146306 0.553947 4.942654 -0.713839 -1.982164 -3.108606 0.588529 -0.383753 1.959652 -0.501826 7.242774 8.085326 -0.656760 8.911622 -3.904058 -1.270620 4.137272 -6.319795 -13.654617 -3.276186 -13.618883 12.700877 -14.034909 -2.603278 4.490371 -0.174013 14.744286 -1.925293 -4.456973 -7.379777 17.790552 5.290156 -9.241063 -13.162700 11.959359 -6.484732 -10.646964 -0.918442 5.823056 
0.285127 0.354576 1.011694 96.448344 1.650120 88.937296 5.597586 4.844446 3.973564 -1.044459 -10.376291 2.898260 0.630157 16.609780 -13.393499 0.000000 -0.000000 0.000000 -1.388130 -6.092477 -1.671143 0.164447 2.795544 12.434512 5.190596 -17.482188 -13.771370 0.000000 -0.000000 0.000000 1.187155 0.544024 4.970157 -0.716362 -1.972038 -3.143731 0.629606 -0.389659 1.962693 -0.574533 8.096443 8.670168 -0.993799 9.993972 -3.762068 -1.295759 4.137331 -6.305112 -13.642446 -3.239826 -13.637543 12.623474 -14.001785 -2.563155 4.543966 -0.233954 14.624555 -1.944338 -4.536239 -7.210542 17.772802 5.372682 -9.216537 -13.185495 11.917788 -6.385957 -10.635926 -0.727092 5.911435 
0.285137 0.354381 1.011694 96.413156 1.635312 88.914513 5.587686 4.850965 3.998611 -1.038407 -10.348888 2.905358 0.651614 16.627577 -13.370828 0.000000 -0.000000 0.000000 -1.394916 -6.081563 -1.665744 0.163755 2.799455 12.461949 5.183727 -17.460975 -13.779139 0.000000 -0.000000 0.000000 1.216295 0.534805 4.997814 -0.721688 -1.962219 -3.176469 0.637624 -0.393829 1.995886 -0.650588 8.652741 9.122411 -1.221918 10.613110 -3.503159 -1.262128 4.176889 -6.280540 -13.695035 -3.252535 -13.638581 12.583984 -13.912073 -2.484165 4.601618 -0.309596 14.601861 -1.976724 -4.588191 -7.110840 17.834295 5.480596 -9.192828 -13.253975 11.808859 -6.314178 -10.602097 -0.626071 5.937927 
0.285090 0.354134 1.011786 96.379984 1.613659 88.898554 5.564342 4.858052 3.999940 -1.036282 -10.359207 2.924822 0.672073 16.680981 -13.367466 0.000000 -0.000000 0.000000 -1.405116 -6.038083 -1.674142 0.176763 2.816265 12.488696 5.209767 -17.485443 -13.804542 0.000000 -0.000000 0.000000 1.237149 0.526557 5.045369 -0.728295 -1.951390 -3.225319 0.612550 -0.377237 2.041995 -0.694322 8.922736 9.427124 -1.330477 10.833115 -3.202165 -1.242517 4.195409 -6.292629 -13.674607 -3.251522 -13.632743 12.538088 -13.872440 -2.436912 4.602498 -0.268055 14.738937 -1.943220 -4.636052 -7.109071 17.795124 5.505513 -9.191408 -13.188656 11.825914 -6.326536 -10.619823 -0.741728 5.928413 
0.285023 0.353900 1.011788 96.363845 1.604909 88.865339 5.565093 4.857160 4.015332 -1.040932 -10.367032 2.947700 0.677565 16.705939 -13.360178 0.000000 -0.000000 0.000000 -1.408938 -6.028354 -1.662105 0.185074 2.813002 12.517580 5.197250 -17.470796 -13.818467 0.000000 -0.000000 0.000000 1.265794 0.533058 5.053526 -0.740876 -1.939026 -3.145281 0.585375 -0.353130 2.082229 -0.728094 8.966621 9.641035 -1.337259 10.829212 -3.136103 -1.193437 4.192622 -6.316595 -13.716837 -3.336192 -13.670929 12.590237 -13.780166 -2.400365 4.539239 -0.154526 14.793669 -1.956230 -4.689209 -7.138994 17.855305 5.484338 -9.212217 -13.180225 11.794471 -6.227152 -10.537665 -0.824985 5.982488 
0.284889 0.353643 1.011820 96.366634 1.588292 88.863247 5.553785 4.841120 3.985064 -1.040691 -10.357813 2.985731 0.666890 16.716657 -13.355116 0.000000 -0.000000 0.000000 -1.415228 -6.014757 -1.676564 0.194674 2.790854 12.535714 5.200343 -17.470270 -13.833204 0.000000 -0.000000 0.000000 1.270196 0.535133 5.110107 -0.741693 -1.925848 -3.126796 0.563631 -0.349666 2.164401 -0.725755 8.682101 9.750879 -1.287183 10.473672 -2.965769 -1.181262 4.207702 -6.317099 -13.740735 -3.387213 -13.694567 12.666762 -13.794722 -2.457684 4.542917 -0.153329 14.864028 -1.943791 -4.741807 -7.228000 17.889102 5.420394 -9.200549 -13.123705 11.829060 -6.196253 -10.602593 -0.824331 6.038200 
